<?xml version="1.0" encoding="UTF-8"?>
<svg xmlns="http://www.w3.org/2000/svg" width="1600" height="900" viewBox="0 0 1600 900">
  <defs>
    <linearGradient id="bg" x1="0%" y1="0%" x2="100%" y2="100%">
      <stop offset="0%" stop-color="#fbe9d8"/>
      <stop offset="40%" stop-color="#f6c4b9"/>
      <stop offset="100%" stop-color="#e7b7f7"/>
    </linearGradient>
    <linearGradient id="stroke" x1="0%" y1="0%" x2="100%" y2="0%">
      <stop offset="0%" stop-color="#d64f59"/>
      <stop offset="100%" stop-color="#5f7cf7"/>
    </linearGradient>
    <linearGradient id="accent" x1="0%" y1="0%" x2="0%" y2="100%">
      <stop offset="0%" stop-color="#f6ae2d" stop-opacity="0.9"/>
      <stop offset="100%" stop-color="#f98d6f" stop-opacity="0.6"/>
    </linearGradient>
    <radialGradient id="glow" cx="50%" cy="50%" r="0.65">
      <stop offset="0%" stop-color="#ffffff" stop-opacity="0.8"/>
      <stop offset="100%" stop-color="#ffffff" stop-opacity="0"/>
    </radialGradient>
  </defs>
  <rect width="1600" height="900" fill="url(#bg)"/>
  <g opacity="0.35">
    <circle cx="300" cy="320" r="200" fill="#f6ae2d"/>
    <circle cx="740" cy="250" r="180" fill="#d64f59"/>
    <circle cx="1230" cy="320" r="180" fill="#5f7cf7"/>
  </g>
  <g opacity="0.35">
    <path d="M200 650 Q320 540 440 650 T680 650" fill="none" stroke="url(#stroke)" stroke-width="32" stroke-linecap="round"/>
    <path d="M1080 660 Q1180 540 1350 660" fill="none" stroke="url(#stroke)" stroke-width="28" stroke-linecap="round"/>
  </g>
  <g fill="none" stroke="#ffffff" stroke-width="12" opacity="0.5">
    <rect x="180" y="180" width="260" height="320" rx="32"/>
    <rect x="1120" y="140" width="280" height="360" rx="42"/>
  </g>
  <g opacity="0.8">
    <path d="M640 550 L840 350 L1030 540 L880 720 Z" fill="url(#accent)"/>
    <circle cx="900" cy="520" r="90" fill-opacity="0.35" fill="#5f7cf7"/>
    <path d="M540 780 Q620 640 760 740 T960 780" fill="none" stroke="#221713" stroke-opacity="0.2" stroke-width="22" stroke-linecap="round"/>
  </g>
  <circle cx="400" cy="690" r="220" fill="url(#glow)" opacity="0.65"/>
  <circle cx="1200" cy="540" r="260" fill="url(#glow)" opacity="0.5"/>
</svg>
