<svg xmlns="http://www.w3.org/2000/svg" viewBox="0 0 1200 4800" width="1200" height="4800" preserveAspectRatio="none" aria-hidden="true">
	<defs>
<radialGradient id="gPrimary" cx="35%" cy="30%" r="70%">
			<stop offset="0%" stop-color="#d64f59" stop-opacity="0.95"/>
			<stop offset="65%" stop-color="#d64f59" stop-opacity="0.25"/>
			<stop offset="100%" stop-color="#d64f59" stop-opacity="0"/>
		</radialGradient>
		<radialGradient id="gSecondary" cx="35%" cy="30%" r="70%">
			<stop offset="0%" stop-color="#5f7cf7" stop-opacity="0.95"/>
			<stop offset="65%" stop-color="#5f7cf7" stop-opacity="0.25"/>
			<stop offset="100%" stop-color="#5f7cf7" stop-opacity="0"/>
		</radialGradient>
		<radialGradient id="gAccent" cx="35%" cy="30%" r="70%">
			<stop offset="0%" stop-color="#f6ae2d" stop-opacity="0.95"/>
			<stop offset="65%" stop-color="#f6ae2d" stop-opacity="0.25"/>
			<stop offset="100%" stop-color="#f6ae2d" stop-opacity="0"/>
		</radialGradient>
		<radialGradient id="gContrast" cx="35%" cy="30%" r="70%">
			<stop offset="0%" stop-color="#1fa387" stop-opacity="0.95"/>
			<stop offset="65%" stop-color="#1fa387" stop-opacity="0.25"/>
			<stop offset="100%" stop-color="#1fa387" stop-opacity="0"/>
		</radialGradient>

		<linearGradient id="trail" x1="0" y1="0" x2="0" y2="1">
			<stop offset="0%" stop-color="#5f7cf7" stop-opacity="0.9"/>
			<stop offset="35%" stop-color="#1fa387" stop-opacity="0.9"/>
			<stop offset="68%" stop-color="#f6ae2d" stop-opacity="0.9"/>
			<stop offset="100%" stop-color="#d64f59" stop-opacity="0.9"/>
		</linearGradient>
<filter id="blurSoft" x="-60%" y="-60%" width="220%" height="220%">
			<feGaussianBlur stdDeviation="18"/>
		</filter>
		<filter id="glowSoft" x="-70%" y="-70%" width="240%" height="240%">
			<feGaussianBlur stdDeviation="22" result="b"/>
			<feMerge>
				<feMergeNode in="b"/>
				<feMergeNode in="SourceGraphic"/>
			</feMerge>
		</filter>
		<filter id="glowTiny" x="-80%" y="-80%" width="260%" height="260%">
			<feGaussianBlur stdDeviation="10" result="b"/>
			<feMerge>
				<feMergeNode in="b"/>
				<feMergeNode in="SourceGraphic"/>
			</feMerge>
		</filter>
	</defs>

	<rect width="1200" height="4800" fill="#fbf6ef"/>

	<!-- Joyful background bubbles -->
	<circle cx="667" cy="1616" r="181" fill="url(#gAccent)" opacity="0.28" filter="url(#blurSoft)"/>
	<circle cx="235" cy="2394" r="241" fill="url(#gSecondary)" opacity="0.28" filter="url(#blurSoft)"/>
	<circle cx="297" cy="4553" r="248" fill="url(#gSecondary)" opacity="0.28" filter="url(#blurSoft)"/>
	<circle cx="573" cy="232" r="247" fill="url(#gPrimary)" opacity="0.28" filter="url(#blurSoft)"/>
	<circle cx="391" cy="4155" r="219" fill="url(#gSecondary)" opacity="0.28" filter="url(#blurSoft)"/>
	<circle cx="678" cy="2633" r="150" fill="url(#gSecondary)" opacity="0.28" filter="url(#blurSoft)"/>
	<circle cx="1128" cy="2132" r="256" fill="url(#gPrimary)" opacity="0.28" filter="url(#blurSoft)"/>
	<circle cx="419" cy="1848" r="169" fill="url(#gContrast)" opacity="0.28" filter="url(#blurSoft)"/>
	<circle cx="165" cy="1639" r="232" fill="url(#gPrimary)" opacity="0.28" filter="url(#blurSoft)"/>
	<circle cx="204" cy="1737" r="204" fill="url(#gPrimary)" opacity="0.28" filter="url(#blurSoft)"/>
	<circle cx="194" cy="4725" r="238" fill="url(#gPrimary)" opacity="0.28" filter="url(#blurSoft)"/>
	<circle cx="1101" cy="872" r="189" fill="url(#gPrimary)" opacity="0.28" filter="url(#blurSoft)"/>
	<circle cx="1130" cy="995" r="209" fill="url(#gContrast)" opacity="0.28" filter="url(#blurSoft)"/>
	<circle cx="827" cy="4771" r="255" fill="url(#gPrimary)" opacity="0.28" filter="url(#blurSoft)"/>
	<circle cx="448" cy="4691" r="240" fill="url(#gSecondary)" opacity="0.28" filter="url(#blurSoft)"/>
	<circle cx="283" cy="3148" r="123" fill="url(#gContrast)" opacity="0.28" filter="url(#blurSoft)"/>

	<!-- Playful trails -->
<g opacity="0.65">
		<path d="M 640 80
			C 360 260, 900 560, 560 820
			C 260 1040, 980 1320, 620 1580
			C 340 1780, 860 2100, 540 2320
			C 240 2560, 980 2820, 640 3080
			C 380 3320, 820 3600, 560 3860
			C 360 4040, 780 4320, 600 4720"
			fill="none"
			stroke="url(#trail)"
			stroke-width="18"
			stroke-linecap="round"
			stroke-dasharray="22 16"
			
		/>
		<path d="M 520 240
			C 760 420, 380 760, 700 980
			C 980 1180, 360 1540, 760 1760
			C 1020 1920, 420 2220, 780 2460
			C 1060 2640, 420 2980, 760 3200
			C 980 3340, 520 3680, 820 3920
			C 980 4040, 660 4380, 740 4660"
			fill="none"
			stroke="#e3d6cc"
			stroke-width="6"
			stroke-linecap="round"
			stroke-dasharray="2 18"
			opacity="0.55"
		/>
	</g>

	<!-- Big round colorful clusters -->
	<g transform="translate(520 520) rotate(5)">
		<circle r="210" fill="none" stroke="#e3d6cc" stroke-width="2" stroke-dasharray="12 10" opacity="0.85"/>
		<circle r="160" fill="none" stroke="#e3d6cc" stroke-width="2" stroke-dasharray="2 10" opacity="0.73"/>
		<circle r="120" fill="none" stroke="#e3d6cc" stroke-width="1.8" stroke-dasharray="12 10" opacity="0.61"/>
		<circle r="84" fill="none" stroke="#e3d6cc" stroke-width="1.8" stroke-dasharray="2 10" opacity="0.49"/>
		<circle cx="-175" cy="-97" r="68" fill="url(#gSecondary)" opacity="0.78" filter="url(#blurSoft)" transform="rotate(314 -175 -97)"/>
		<circle cx="-151" cy="-114" r="90" fill="url(#gAccent)" opacity="0.78" filter="url(#blurSoft)" transform="rotate(226 -151 -114)"/>
		<circle cx="3" cy="-107" r="108" fill="url(#gPrimary)" opacity="0.78" filter="url(#blurSoft)" transform="rotate(336 3 -107)"/>
		<circle cx="52" cy="-79" r="93" fill="url(#gSecondary)" opacity="0.78" filter="url(#blurSoft)" transform="rotate(148 52 -79)"/>
		<circle cx="-120" cy="63" r="95" fill="url(#gSecondary)" opacity="0.78" filter="url(#blurSoft)" transform="rotate(258 -120 63)"/>
		<circle cx="-132" cy="-92" r="80" fill="url(#gPrimary)" opacity="0.78" filter="url(#blurSoft)" transform="rotate(228 -132 -92)"/>
		<circle cx="-128" cy="103" r="17" fill="#f6ae2d" opacity="0.95"/>
		<circle cx="-87" cy="-70" r="21" fill="#f6ae2d" opacity="0.95"/>
		<circle cx="89" cy="69" r="16" fill="#1fa387" opacity="0.95"/>
		<circle cx="-110" cy="-66" r="19" fill="#d64f59" opacity="0.95"/>
		<circle cx="-85" cy="58" r="12" fill="#1fa387" opacity="0.95"/>
		<circle cx="-50" cy="-58" r="19" fill="#1fa387" opacity="0.95"/>
		<circle cx="169" cy="121" r="10" fill="#d64f59" opacity="0.95"/>
		<circle cx="151" cy="-107" r="17" fill="#5f7cf7" opacity="0.95"/>
		<circle cx="165" cy="-110" r="20" fill="#d64f59" opacity="0.95"/>
		<circle cx="78" cy="-72" r="16" fill="#d64f59" opacity="0.95"/>
	</g>
	<g transform="translate(640 1180) rotate(0)">
		<circle r="210" fill="none" stroke="#e3d6cc" stroke-width="2" stroke-dasharray="12 10" opacity="0.85"/>
		<circle r="160" fill="none" stroke="#e3d6cc" stroke-width="2" stroke-dasharray="2 10" opacity="0.73"/>
		<circle r="120" fill="none" stroke="#e3d6cc" stroke-width="1.8" stroke-dasharray="12 10" opacity="0.61"/>
		<circle r="84" fill="none" stroke="#e3d6cc" stroke-width="1.8" stroke-dasharray="2 10" opacity="0.49"/>
		<circle cx="-72" cy="-152" r="85" fill="url(#gContrast)" opacity="0.78" filter="url(#blurSoft)" transform="rotate(38 -72 -152)"/>
		<circle cx="160" cy="-187" r="81" fill="url(#gContrast)" opacity="0.78" filter="url(#blurSoft)" transform="rotate(54 160 -187)"/>
		<circle cx="179" cy="-12" r="54" fill="url(#gContrast)" opacity="0.78" filter="url(#blurSoft)" transform="rotate(266 179 -12)"/>
		<circle cx="-115" cy="-138" r="63" fill="url(#gContrast)" opacity="0.78" filter="url(#blurSoft)" transform="rotate(91 -115 -138)"/>
		<circle cx="154" cy="-68" r="105" fill="url(#gAccent)" opacity="0.78" filter="url(#blurSoft)" transform="rotate(111 154 -68)"/>
		<circle cx="81" cy="128" r="64" fill="url(#gPrimary)" opacity="0.78" filter="url(#blurSoft)" transform="rotate(92 81 128)"/>
		<circle cx="55" cy="-45" r="12" fill="#1fa387" opacity="0.95"/>
		<circle cx="-162" cy="117" r="20" fill="#1fa387" opacity="0.95"/>
		<circle cx="-143" cy="-110" r="12" fill="#1fa387" opacity="0.95"/>
		<circle cx="58" cy="45" r="11" fill="#1fa387" opacity="0.95"/>
		<circle cx="135" cy="134" r="10" fill="#5f7cf7" opacity="0.95"/>
		<circle cx="-145" cy="-89" r="20" fill="#d64f59" opacity="0.95"/>
		<circle cx="-118" cy="101" r="17" fill="#f6ae2d" opacity="0.95"/>
		<circle cx="-61" cy="-53" r="14" fill="#f6ae2d" opacity="0.95"/>
		<circle cx="76" cy="53" r="11" fill="#d64f59" opacity="0.95"/>
		<circle cx="-90" cy="-62" r="22" fill="#1fa387" opacity="0.95"/>
	</g>
	<g transform="translate(600 1840) rotate(-5)">
		<circle r="210" fill="none" stroke="#e3d6cc" stroke-width="2" stroke-dasharray="12 10" opacity="0.85"/>
		<circle r="160" fill="none" stroke="#e3d6cc" stroke-width="2" stroke-dasharray="2 10" opacity="0.73"/>
		<circle r="120" fill="none" stroke="#e3d6cc" stroke-width="1.8" stroke-dasharray="12 10" opacity="0.61"/>
		<circle r="84" fill="none" stroke="#e3d6cc" stroke-width="1.8" stroke-dasharray="2 10" opacity="0.49"/>
		<circle cx="35" cy="169" r="72" fill="url(#gAccent)" opacity="0.78" filter="url(#blurSoft)" transform="rotate(335 35 169)"/>
		<circle cx="-144" cy="72" r="104" fill="url(#gPrimary)" opacity="0.78" filter="url(#blurSoft)" transform="rotate(293 -144 72)"/>
		<circle cx="-123" cy="168" r="51" fill="url(#gAccent)" opacity="0.78" filter="url(#blurSoft)" transform="rotate(88 -123 168)"/>
		<circle cx="-153" cy="14" r="94" fill="url(#gSecondary)" opacity="0.78" filter="url(#blurSoft)" transform="rotate(323 -153 14)"/>
		<circle cx="106" cy="148" r="94" fill="url(#gSecondary)" opacity="0.78" filter="url(#blurSoft)" transform="rotate(177 106 148)"/>
		<circle cx="169" cy="42" r="47" fill="url(#gAccent)" opacity="0.78" filter="url(#blurSoft)" transform="rotate(28 169 42)"/>
		<circle cx="-147" cy="-88" r="20" fill="#f6ae2d" opacity="0.95"/>
		<circle cx="-174" cy="-135" r="13" fill="#f6ae2d" opacity="0.95"/>
		<circle cx="193" cy="-105" r="20" fill="#d64f59" opacity="0.95"/>
		<circle cx="54" cy="59" r="17" fill="#5f7cf7" opacity="0.95"/>
		<circle cx="-114" cy="94" r="14" fill="#f6ae2d" opacity="0.95"/>
		<circle cx="109" cy="75" r="15" fill="#d64f59" opacity="0.95"/>
		<circle cx="-71" cy="-67" r="13" fill="#f6ae2d" opacity="0.95"/>
		<circle cx="-195" cy="-143" r="18" fill="#1fa387" opacity="0.95"/>
		<circle cx="101" cy="82" r="22" fill="#f6ae2d" opacity="0.95"/>
		<circle cx="-139" cy="-111" r="13" fill="#f6ae2d" opacity="0.95"/>
	</g>
	<g transform="translate(600 2520) rotate(-3)">
		<circle r="210" fill="none" stroke="#e3d6cc" stroke-width="2" stroke-dasharray="12 10" opacity="0.85"/>
		<circle r="160" fill="none" stroke="#e3d6cc" stroke-width="2" stroke-dasharray="2 10" opacity="0.73"/>
		<circle r="120" fill="none" stroke="#e3d6cc" stroke-width="1.8" stroke-dasharray="12 10" opacity="0.61"/>
		<circle r="84" fill="none" stroke="#e3d6cc" stroke-width="1.8" stroke-dasharray="2 10" opacity="0.49"/>
		<circle cx="102" cy="174" r="69" fill="url(#gSecondary)" opacity="0.78" filter="url(#blurSoft)" transform="rotate(235 102 174)"/>
		<circle cx="-6" cy="-52" r="53" fill="url(#gContrast)" opacity="0.78" filter="url(#blurSoft)" transform="rotate(64 -6 -52)"/>
		<circle cx="103" cy="180" r="59" fill="url(#gPrimary)" opacity="0.78" filter="url(#blurSoft)" transform="rotate(184 103 180)"/>
		<circle cx="93" cy="31" r="53" fill="url(#gSecondary)" opacity="0.78" filter="url(#blurSoft)" transform="rotate(92 93 31)"/>
		<circle cx="-99" cy="-76" r="55" fill="url(#gContrast)" opacity="0.78" filter="url(#blurSoft)" transform="rotate(243 -99 -76)"/>
		<circle cx="-193" cy="-67" r="98" fill="url(#gContrast)" opacity="0.78" filter="url(#blurSoft)" transform="rotate(194 -193 -67)"/>
		<circle cx="108" cy="96" r="16" fill="#d64f59" opacity="0.95"/>
		<circle cx="183" cy="114" r="13" fill="#5f7cf7" opacity="0.95"/>
		<circle cx="169" cy="96" r="11" fill="#f6ae2d" opacity="0.95"/>
		<circle cx="189" cy="-106" r="14" fill="#d64f59" opacity="0.95"/>
		<circle cx="-136" cy="97" r="21" fill="#f6ae2d" opacity="0.95"/>
		<circle cx="82" cy="57" r="12" fill="#1fa387" opacity="0.95"/>
		<circle cx="117" cy="97" r="10" fill="#f6ae2d" opacity="0.95"/>
		<circle cx="-70" cy="-46" r="14" fill="#d64f59" opacity="0.95"/>
		<circle cx="129" cy="110" r="14" fill="#5f7cf7" opacity="0.95"/>
		<circle cx="96" cy="78" r="10" fill="#1fa387" opacity="0.95"/>
	</g>
	<g transform="translate(600 3220) rotate(7)">
		<circle r="210" fill="none" stroke="#e3d6cc" stroke-width="2" stroke-dasharray="12 10" opacity="0.85"/>
		<circle r="160" fill="none" stroke="#e3d6cc" stroke-width="2" stroke-dasharray="2 10" opacity="0.73"/>
		<circle r="120" fill="none" stroke="#e3d6cc" stroke-width="1.8" stroke-dasharray="12 10" opacity="0.61"/>
		<circle r="84" fill="none" stroke="#e3d6cc" stroke-width="1.8" stroke-dasharray="2 10" opacity="0.49"/>
		<circle cx="114" cy="178" r="92" fill="url(#gContrast)" opacity="0.78" filter="url(#blurSoft)" transform="rotate(81 114 178)"/>
		<circle cx="47" cy="-78" r="67" fill="url(#gAccent)" opacity="0.78" filter="url(#blurSoft)" transform="rotate(264 47 -78)"/>
		<circle cx="85" cy="-177" r="94" fill="url(#gPrimary)" opacity="0.78" filter="url(#blurSoft)" transform="rotate(316 85 -177)"/>
		<circle cx="196" cy="-74" r="54" fill="url(#gAccent)" opacity="0.78" filter="url(#blurSoft)" transform="rotate(101 196 -74)"/>
		<circle cx="109" cy="-85" r="69" fill="url(#gPrimary)" opacity="0.78" filter="url(#blurSoft)" transform="rotate(319 109 -85)"/>
		<circle cx="-140" cy="-149" r="79" fill="url(#gSecondary)" opacity="0.78" filter="url(#blurSoft)" transform="rotate(58 -140 -149)"/>
		<circle cx="107" cy="-97" r="12" fill="#5f7cf7" opacity="0.95"/>
		<circle cx="-138" cy="98" r="19" fill="#d64f59" opacity="0.95"/>
		<circle cx="-175" cy="-113" r="14" fill="#1fa387" opacity="0.95"/>
		<circle cx="114" cy="-83" r="11" fill="#5f7cf7" opacity="0.95"/>
		<circle cx="-40" cy="33" r="20" fill="#5f7cf7" opacity="0.95"/>
		<circle cx="85" cy="69" r="11" fill="#1fa387" opacity="0.95"/>
		<circle cx="123" cy="120" r="13" fill="#f6ae2d" opacity="0.95"/>
		<circle cx="-135" cy="120" r="16" fill="#5f7cf7" opacity="0.95"/>
		<circle cx="163" cy="114" r="19" fill="#d64f59" opacity="0.95"/>
		<circle cx="197" cy="-143" r="18" fill="#d64f59" opacity="0.95"/>
	</g>
	<g transform="translate(640 4040) rotate(-4)">
		<circle r="210" fill="none" stroke="#e3d6cc" stroke-width="2" stroke-dasharray="12 10" opacity="0.85"/>
		<circle r="160" fill="none" stroke="#e3d6cc" stroke-width="2" stroke-dasharray="2 10" opacity="0.73"/>
		<circle r="120" fill="none" stroke="#e3d6cc" stroke-width="1.8" stroke-dasharray="12 10" opacity="0.61"/>
		<circle r="84" fill="none" stroke="#e3d6cc" stroke-width="1.8" stroke-dasharray="2 10" opacity="0.49"/>
		<circle cx="21" cy="59" r="66" fill="url(#gPrimary)" opacity="0.78" filter="url(#blurSoft)" transform="rotate(72 21 59)"/>
		<circle cx="-129" cy="39" r="85" fill="url(#gAccent)" opacity="0.78" filter="url(#blurSoft)" transform="rotate(186 -129 39)"/>
		<circle cx="-100" cy="-42" r="89" fill="url(#gPrimary)" opacity="0.78" filter="url(#blurSoft)" transform="rotate(155 -100 -42)"/>
		<circle cx="-111" cy="34" r="67" fill="url(#gAccent)" opacity="0.78" filter="url(#blurSoft)" transform="rotate(340 -111 34)"/>
		<circle cx="-194" cy="-162" r="87" fill="url(#gSecondary)" opacity="0.78" filter="url(#blurSoft)" transform="rotate(118 -194 -162)"/>
		<circle cx="-189" cy="-172" r="89" fill="url(#gSecondary)" opacity="0.78" filter="url(#blurSoft)" transform="rotate(305 -189 -172)"/>
		<circle cx="55" cy="-34" r="21" fill="#1fa387" opacity="0.95"/>
		<circle cx="-170" cy="-119" r="15" fill="#5f7cf7" opacity="0.95"/>
		<circle cx="49" cy="41" r="12" fill="#d64f59" opacity="0.95"/>
		<circle cx="-59" cy="-43" r="22" fill="#1fa387" opacity="0.95"/>
		<circle cx="-84" cy="83" r="13" fill="#f6ae2d" opacity="0.95"/>
		<circle cx="-125" cy="-76" r="22" fill="#d64f59" opacity="0.95"/>
		<circle cx="134" cy="-120" r="21" fill="#f6ae2d" opacity="0.95"/>
		<circle cx="104" cy="93" r="20" fill="#5f7cf7" opacity="0.95"/>
		<circle cx="182" cy="-95" r="10" fill="#1fa387" opacity="0.95"/>
		<circle cx="83" cy="-52" r="17" fill="#1fa387" opacity="0.95"/>
	</g>

	<!-- Extra crisp bubbles -->
	<circle cx="243" cy="403" r="54" fill="#1fa387" opacity="0.88"/>
	<circle cx="350" cy="304" r="54" fill="#f6ae2d" opacity="0.88"/>
	<circle cx="465" cy="426" r="30" fill="#f6ae2d" opacity="0.88"/>
	<circle cx="188" cy="941" r="48" fill="#f6ae2d" opacity="0.88"/>
	<circle cx="544" cy="859" r="52" fill="#1fa387" opacity="0.88"/>
	<circle cx="632" cy="968" r="26" fill="#5f7cf7" opacity="0.88"/>
	<circle cx="506" cy="1422" r="31" fill="#f6ae2d" opacity="0.88"/>
	<circle cx="257" cy="1474" r="43" fill="#1fa387" opacity="0.88"/>
	<circle cx="345" cy="1499" r="47" fill="#1fa387" opacity="0.88"/>
	<circle cx="110" cy="2042" r="49" fill="#d64f59" opacity="0.88"/>
	<circle cx="308" cy="2083" r="49" fill="#5f7cf7" opacity="0.88"/>
	<circle cx="641" cy="1990" r="53" fill="#f6ae2d" opacity="0.88"/>
	<circle cx="416" cy="2709" r="40" fill="#d64f59" opacity="0.88"/>
	<circle cx="431" cy="2626" r="32" fill="#5f7cf7" opacity="0.88"/>
	<circle cx="204" cy="2732" r="32" fill="#d64f59" opacity="0.88"/>
	<circle cx="657" cy="3500" r="30" fill="#5f7cf7" opacity="0.88"/>
	<circle cx="773" cy="3405" r="53" fill="#1fa387" opacity="0.88"/>
	<circle cx="154" cy="3476" r="39" fill="#d64f59" opacity="0.88"/>
	<circle cx="273" cy="4371" r="53" fill="#d64f59" opacity="0.88"/>
	<circle cx="858" cy="4426" r="42" fill="#f6ae2d" opacity="0.88"/>
	<circle cx="184" cy="4311" r="54" fill="#1fa387" opacity="0.88"/>

	<!-- Confetti dots -->
	<g opacity="0.55" >
		<circle cx="942" cy="957" r="3" fill="#d64f59" opacity="0.55"/>
		<circle cx="211" cy="806" r="5" fill="#5f7cf7" opacity="0.55"/>
		<circle cx="103" cy="129" r="5" fill="#1fa387" opacity="0.85"/>
		<circle cx="344" cy="747" r="4" fill="#d64f59" opacity="0.55"/>
		<circle cx="1070" cy="3987" r="4" fill="#d64f59" opacity="0.85"/>
		<circle cx="180" cy="728" r="7" fill="#d64f59" opacity="0.75"/>
		<circle cx="169" cy="2477" r="6" fill="#f6ae2d" opacity="0.75"/>
		<circle cx="550" cy="1638" r="6" fill="#d64f59" opacity="0.55"/>
		<circle cx="51" cy="2732" r="4" fill="#1fa387" opacity="0.85"/>
		<circle cx="382" cy="443" r="3" fill="#1fa387" opacity="0.65"/>
		<circle cx="194" cy="4565" r="4" fill="#5f7cf7" opacity="0.55"/>
		<circle cx="749" cy="908" r="7" fill="#5f7cf7" opacity="0.75"/>
		<circle cx="970" cy="324" r="6" fill="#f6ae2d" opacity="0.55"/>
		<circle cx="403" cy="2225" r="4" fill="#f6ae2d" opacity="0.65"/>
		<circle cx="991" cy="336" r="7" fill="#1fa387" opacity="0.75"/>
		<circle cx="1055" cy="2799" r="7" fill="#1fa387" opacity="0.85"/>
		<circle cx="132" cy="3857" r="7" fill="#5f7cf7" opacity="0.85"/>
		<circle cx="1103" cy="3587" r="5" fill="#f6ae2d" opacity="0.55"/>
		<circle cx="420" cy="3410" r="6" fill="#d64f59" opacity="0.55"/>
		<circle cx="1033" cy="3086" r="8" fill="#f6ae2d" opacity="0.65"/>
		<circle cx="747" cy="886" r="8" fill="#5f7cf7" opacity="0.75"/>
		<circle cx="357" cy="2650" r="6" fill="#d64f59" opacity="0.55"/>
		<circle cx="849" cy="1754" r="3" fill="#f6ae2d" opacity="0.55"/>
		<circle cx="489" cy="4151" r="3" fill="#f6ae2d" opacity="0.75"/>
		<circle cx="983" cy="542" r="7" fill="#f6ae2d" opacity="0.55"/>
		<circle cx="913" cy="1653" r="3" fill="#1fa387" opacity="0.65"/>
		<circle cx="981" cy="4100" r="4" fill="#f6ae2d" opacity="0.65"/>
		<circle cx="1094" cy="3450" r="4" fill="#5f7cf7" opacity="0.75"/>
		<circle cx="163" cy="2887" r="7" fill="#5f7cf7" opacity="0.85"/>
		<circle cx="1007" cy="2734" r="4" fill="#5f7cf7" opacity="0.55"/>
		<circle cx="378" cy="1187" r="7" fill="#d64f59" opacity="0.75"/>
		<circle cx="390" cy="13" r="8" fill="#d64f59" opacity="0.55"/>
		<circle cx="343" cy="1777" r="3" fill="#1fa387" opacity="0.85"/>
		<circle cx="704" cy="1696" r="8" fill="#1fa387" opacity="0.75"/>
		<circle cx="1140" cy="2494" r="6" fill="#f6ae2d" opacity="0.65"/>
		<circle cx="1130" cy="760" r="5" fill="#f6ae2d" opacity="0.85"/>
		<circle cx="859" cy="4628" r="5" fill="#d64f59" opacity="0.85"/>
		<circle cx="601" cy="1752" r="5" fill="#1fa387" opacity="0.55"/>
		<circle cx="755" cy="3609" r="4" fill="#1fa387" opacity="0.65"/>
		<circle cx="819" cy="2522" r="3" fill="#d64f59" opacity="0.85"/>
		<circle cx="848" cy="2444" r="6" fill="#1fa387" opacity="0.65"/>
		<circle cx="860" cy="3915" r="4" fill="#f6ae2d" opacity="0.75"/>
		<circle cx="749" cy="1688" r="4" fill="#1fa387" opacity="0.85"/>
		<circle cx="97" cy="3832" r="8" fill="#d64f59" opacity="0.55"/>
		<circle cx="790" cy="3897" r="3" fill="#5f7cf7" opacity="0.75"/>
		<circle cx="754" cy="2372" r="5" fill="#f6ae2d" opacity="0.75"/>
		<circle cx="438" cy="4171" r="8" fill="#f6ae2d" opacity="0.55"/>
		<circle cx="1133" cy="1671" r="5" fill="#f6ae2d" opacity="0.75"/>
		<circle cx="978" cy="2191" r="3" fill="#d64f59" opacity="0.65"/>
		<circle cx="566" cy="3046" r="4" fill="#d64f59" opacity="0.85"/>
		<circle cx="116" cy="361" r="4" fill="#5f7cf7" opacity="0.75"/>
		<circle cx="1096" cy="2911" r="6" fill="#d64f59" opacity="0.75"/>
		<circle cx="575" cy="3977" r="7" fill="#5f7cf7" opacity="0.75"/>
		<circle cx="1072" cy="678" r="8" fill="#d64f59" opacity="0.75"/>
		<circle cx="510" cy="1331" r="6" fill="#1fa387" opacity="0.65"/>
		<circle cx="1130" cy="558" r="4" fill="#5f7cf7" opacity="0.65"/>
		<circle cx="1077" cy="4136" r="8" fill="#1fa387" opacity="0.75"/>
		<circle cx="304" cy="4601" r="7" fill="#1fa387" opacity="0.55"/>
		<circle cx="801" cy="562" r="5" fill="#1fa387" opacity="0.55"/>
		<circle cx="185" cy="2573" r="4" fill="#5f7cf7" opacity="0.75"/>
		<circle cx="1107" cy="3111" r="7" fill="#1fa387" opacity="0.55"/>
		<circle cx="101" cy="3670" r="3" fill="#f6ae2d" opacity="0.85"/>
		<circle cx="736" cy="1211" r="6" fill="#5f7cf7" opacity="0.55"/>
		<circle cx="770" cy="3042" r="6" fill="#5f7cf7" opacity="0.55"/>
		<circle cx="76" cy="1738" r="4" fill="#5f7cf7" opacity="0.65"/>
		<circle cx="561" cy="405" r="7" fill="#1fa387" opacity="0.75"/>
		<circle cx="801" cy="2362" r="6" fill="#1fa387" opacity="0.75"/>
		<circle cx="519" cy="2336" r="3" fill="#f6ae2d" opacity="0.75"/>
		<circle cx="286" cy="4458" r="7" fill="#d64f59" opacity="0.65"/>
		<circle cx="1133" cy="4678" r="7" fill="#f6ae2d" opacity="0.65"/>
		<circle cx="699" cy="2399" r="5" fill="#f6ae2d" opacity="0.65"/>
		<circle cx="975" cy="1386" r="3" fill="#1fa387" opacity="0.65"/>
		<circle cx="432" cy="3635" r="5" fill="#5f7cf7" opacity="0.75"/>
		<circle cx="878" cy="4342" r="6" fill="#1fa387" opacity="0.85"/>
		<circle cx="1093" cy="3647" r="8" fill="#f6ae2d" opacity="0.55"/>
		<circle cx="1123" cy="3289" r="7" fill="#5f7cf7" opacity="0.55"/>
		<circle cx="1001" cy="3998" r="3" fill="#5f7cf7" opacity="0.75"/>
		<circle cx="529" cy="580" r="5" fill="#1fa387" opacity="0.75"/>
		<circle cx="1109" cy="2907" r="6" fill="#5f7cf7" opacity="0.85"/>
		<circle cx="993" cy="2617" r="6" fill="#d64f59" opacity="0.85"/>
		<circle cx="215" cy="623" r="4" fill="#5f7cf7" opacity="0.75"/>
		<circle cx="393" cy="3094" r="5" fill="#5f7cf7" opacity="0.75"/>
		<circle cx="100" cy="1295" r="8" fill="#f6ae2d" opacity="0.55"/>
		<circle cx="132" cy="456" r="8" fill="#f6ae2d" opacity="0.85"/>
		<circle cx="701" cy="2784" r="5" fill="#1fa387" opacity="0.65"/>
		<circle cx="809" cy="3232" r="3" fill="#f6ae2d" opacity="0.75"/>
		<circle cx="688" cy="2038" r="4" fill="#5f7cf7" opacity="0.85"/>
		<circle cx="951" cy="3420" r="7" fill="#f6ae2d" opacity="0.75"/>
		<circle cx="931" cy="3209" r="5" fill="#1fa387" opacity="0.75"/>
		<circle cx="547" cy="2344" r="4" fill="#5f7cf7" opacity="0.85"/>
		<circle cx="362" cy="282" r="4" fill="#f6ae2d" opacity="0.65"/>
		<circle cx="920" cy="3639" r="3" fill="#1fa387" opacity="0.55"/>
		<circle cx="169" cy="580" r="4" fill="#1fa387" opacity="0.85"/>
		<circle cx="817" cy="1945" r="8" fill="#f6ae2d" opacity="0.75"/>
		<circle cx="1103" cy="4246" r="6" fill="#d64f59" opacity="0.75"/>
		<circle cx="93" cy="4104" r="4" fill="#5f7cf7" opacity="0.65"/>
		<circle cx="808" cy="3508" r="4" fill="#5f7cf7" opacity="0.75"/>
		<circle cx="232" cy="4001" r="7" fill="#f6ae2d" opacity="0.65"/>
		<circle cx="586" cy="3530" r="8" fill="#1fa387" opacity="0.75"/>
		<circle cx="686" cy="1372" r="3" fill="#1fa387" opacity="0.65"/>
		<circle cx="945" cy="2045" r="3" fill="#f6ae2d" opacity="0.65"/>
		<circle cx="601" cy="1186" r="6" fill="#5f7cf7" opacity="0.65"/>
		<circle cx="1109" cy="1197" r="4" fill="#f6ae2d" opacity="0.85"/>
		<circle cx="43" cy="4247" r="5" fill="#5f7cf7" opacity="0.65"/>
		<circle cx="73" cy="144" r="5" fill="#1fa387" opacity="0.65"/>
		<circle cx="62" cy="3394" r="6" fill="#1fa387" opacity="0.85"/>
		<circle cx="719" cy="4775" r="7" fill="#5f7cf7" opacity="0.85"/>
		<circle cx="665" cy="3840" r="7" fill="#d64f59" opacity="0.55"/>
		<circle cx="638" cy="4643" r="3" fill="#1fa387" opacity="0.65"/>
		<circle cx="849" cy="3433" r="4" fill="#d64f59" opacity="0.85"/>
		<circle cx="842" cy="913" r="6" fill="#5f7cf7" opacity="0.65"/>
		<circle cx="188" cy="3018" r="4" fill="#5f7cf7" opacity="0.55"/>
		<circle cx="1089" cy="3112" r="3" fill="#5f7cf7" opacity="0.75"/>
		<circle cx="1067" cy="235" r="5" fill="#d64f59" opacity="0.75"/>
		<circle cx="1100" cy="144" r="3" fill="#1fa387" opacity="0.85"/>
		<circle cx="102" cy="2362" r="4" fill="#5f7cf7" opacity="0.85"/>
		<circle cx="166" cy="2413" r="4" fill="#1fa387" opacity="0.85"/>
		<circle cx="398" cy="2157" r="4" fill="#1fa387" opacity="0.75"/>
		<circle cx="1109" cy="78" r="5" fill="#f6ae2d" opacity="0.65"/>
		<circle cx="419" cy="266" r="8" fill="#f6ae2d" opacity="0.85"/>
		<circle cx="76" cy="3479" r="4" fill="#1fa387" opacity="0.75"/>
		<circle cx="627" cy="770" r="3" fill="#1fa387" opacity="0.75"/>
		<circle cx="1120" cy="311" r="8" fill="#1fa387" opacity="0.85"/>
		<circle cx="1113" cy="1496" r="6" fill="#d64f59" opacity="0.75"/>
		<circle cx="1101" cy="4391" r="4" fill="#d64f59" opacity="0.85"/>
		<circle cx="223" cy="2604" r="8" fill="#5f7cf7" opacity="0.55"/>
		<circle cx="716" cy="3947" r="5" fill="#d64f59" opacity="0.55"/>
		<circle cx="962" cy="86" r="5" fill="#d64f59" opacity="0.65"/>
		<circle cx="261" cy="3652" r="8" fill="#5f7cf7" opacity="0.55"/>
		<circle cx="586" cy="4114" r="8" fill="#1fa387" opacity="0.75"/>
		<circle cx="106" cy="4692" r="8" fill="#f6ae2d" opacity="0.75"/>
		<circle cx="475" cy="719" r="7" fill="#5f7cf7" opacity="0.55"/>
		<circle cx="653" cy="137" r="3" fill="#d64f59" opacity="0.55"/>
		<circle cx="649" cy="4567" r="7" fill="#f6ae2d" opacity="0.85"/>
		<circle cx="76" cy="3202" r="6" fill="#d64f59" opacity="0.65"/>
		<circle cx="201" cy="2854" r="8" fill="#f6ae2d" opacity="0.75"/>
		<circle cx="835" cy="2908" r="8" fill="#d64f59" opacity="0.55"/>
		<circle cx="304" cy="1094" r="6" fill="#f6ae2d" opacity="0.65"/>
		<circle cx="237" cy="505" r="5" fill="#5f7cf7" opacity="0.55"/>
		<circle cx="735" cy="4589" r="7" fill="#1fa387" opacity="0.55"/>
	</g>
</svg>
